<?xml version="1.0" standalone="no"?>
<!DOCTYPE svg PUBLIC "-//W3C//DTD SVG 20010904//EN"
 "http://www.w3.org/TR/2001/REC-SVG-20010904/DTD/svg10.dtd">
<svg version="1.0" xmlns="http://www.w3.org/2000/svg"
 width="1024.000000pt" height="1024.000000pt" viewBox="0 0 1024.000000 1024.000000"
 preserveAspectRatio="xMidYMid meet">

<g transform="translate(0.000000,1024.000000) scale(0.100000,-0.100000)"
fill="#000000" stroke="none">
<path d="M0 5120 l0 -5120 5120 0 5120 0 0 5120 0 5120 -5120 0 -5120 0 0
-5120z m3748 2038 c18 -18 16 -98 -3 -98 -10 0 -15 11 -15 35 0 29 -4 35 -20
35 -20 0 -21 -5 -18 -112 2 -93 6 -113 18 -113 10 0 16 12 18 38 2 25 8 37 18
37 12 0 14 -11 12 -52 -3 -52 -4 -53 -36 -56 -57 -6 -62 6 -62 140 0 66 5 128
10 139 12 22 59 26 78 7z m72 -138 c0 -127 -2 -150 -15 -150 -13 0 -15 23 -15
144 0 137 2 147 28 155 1 1 2 -66 2 -149z m80 67 c12 -40 23 -76 25 -82 2 -5
4 29 4 76 1 69 4 86 16 86 13 0 15 -23 15 -149 0 -136 -1 -148 -18 -148 -15 0
-22 16 -38 78 l-19 77 -3 -77 c-2 -60 -6 -78 -17 -78 -13 0 -15 25 -15 150 0
126 2 149 14 144 8 -3 24 -38 36 -77z m298 59 c3 -12 -5 -16 -32 -16 -36 0
-36 0 -36 -45 0 -41 2 -45 25 -45 16 0 25 -6 25 -15 0 -9 -9 -15 -25 -15 -24
0 -25 -3 -25 -55 l0 -55 35 0 c24 0 35 -5 35 -15 0 -11 -12 -15 -50 -15 l-50
0 0 148 0 147 47 -1 c36 -1 49 -6 51 -18z m120 -46 c2 -30 -2 -64 -9 -76 -11
-22 -7 -56 17 -136 4 -13 0 -18 -14 -18 -16 0 -22 12 -32 63 -18 89 -30 93
-30 9 0 -57 -3 -72 -15 -72 -13 0 -15 23 -15 148 l0 148 48 -6 47 -5 3 -55z
m120 58 c17 -17 15 -58 -3 -58 -8 0 -15 7 -15 15 0 8 -9 15 -20 15 -16 0 -20
-7 -20 -35 0 -27 7 -40 35 -62 32 -26 35 -32 35 -83 0 -72 -8 -82 -56 -78 -36
3 -39 6 -42 36 -4 37 22 46 31 11 10 -37 31 -16 30 30 0 36 -6 48 -32 68 -28
22 -31 30 -31 77 0 58 12 76 50 76 14 0 31 -5 38 -12z m-354 -13 c-4 -9 -19
-15 -35 -15 -28 0 -29 -2 -29 -45 0 -41 2 -45 25 -45 16 0 25 -6 25 -15 0 -9
-9 -15 -25 -15 -24 0 -25 -2 -25 -70 0 -60 -2 -70 -17 -70 -16 0 -18 14 -20
145 l-2 145 54 0 c44 0 53 -3 49 -15z m645 -61 l60 -76 -18 -36 c-10 -21 -29
-46 -41 -57 l-22 -20 4 20 c2 11 10 19 17 17 7 -1 11 3 9 10 -3 7 1 28 9 46
13 31 12 34 -14 56 -15 13 -38 43 -50 66 -41 75 -30 69 46 -26z m50 33 c11
-18 31 -43 45 -56 34 -32 33 -48 -5 -94 -40 -48 -50 -40 -16 12 l26 39 -21 18
c-25 23 -72 114 -59 114 5 0 18 -15 30 -33z m94 -32 c9 -25 12 -45 7 -45 -13
0 -40 54 -40 80 0 32 16 15 33 -35z m-195 -13 c20 -30 11 -28 -17 4 -13 15
-17 24 -10 22 7 -2 19 -14 27 -26z m190 -122 c-22 -65 -33 -79 -23 -27 9 45
26 87 36 87 4 0 -1 -27 -13 -60z m-190 -10 c-48 -54 -80 -79 -62 -47 27 47 81
107 97 107 14 0 6 -14 -35 -60z m-1473 -677 c97 -137 180 -248 184 -248 5 0
88 111 186 248 l177 247 185 0 185 0 -18 -27 c-10 -16 -115 -163 -234 -328
-119 -165 -242 -336 -273 -380 l-57 -79 0 -328 0 -328 -155 0 -155 0 0 326 0
326 -67 92 c-36 50 -90 123 -118 161 -94 128 -391 540 -399 553 -6 9 35 12
188 12 l195 0 176 -247z m1295 -176 c0 -551 8 -618 88 -700 60 -63 105 -81
197 -81 89 -1 125 13 183 68 87 81 92 121 92 678 l0 458 155 0 c153 0 155 0
160 -23 4 -13 5 -246 2 -518 -4 -534 -3 -529 -61 -652 -35 -73 -117 -162 -191
-206 -184 -111 -469 -115 -667 -9 -71 38 -163 134 -201 210 -60 119 -60 117
-64 681 l-4 517 155 0 156 0 0 -423z m-1510 -1427 l0 -140 -385 0 -385 0 0
-185 0 -185 350 0 350 0 0 -137 0 -138 -350 3 -350 3 0 -295 0 -296 -160 0
-160 0 0 755 0 755 545 0 545 0 0 -140z m570 -465 l0 -605 350 0 350 0 0 -150
0 -150 -503 0 c-378 0 -506 3 -515 12 -9 9 -12 190 -12 755 l0 743 165 0 165
0 0 -605z m3034 101 c82 -277 152 -509 155 -515 4 -6 47 116 96 272 48 155
121 386 161 512 l72 230 153 0 152 0 13 -40 c7 -22 47 -152 89 -290 90 -294
118 -382 178 -568 l44 -138 81 273 c44 150 114 384 154 521 l73 247 162 0 163
0 0 -23 c0 -13 -25 -107 -56 -208 -76 -254 -297 -975 -348 -1139 l-42 -135
-169 0 -168 0 -158 477 c-86 262 -162 485 -167 494 -7 13 -38 -69 -127 -342
-64 -197 -137 -421 -162 -497 l-45 -137 -166 2 -165 3 -129 410 c-71 226 -176
558 -233 739 -79 248 -102 333 -94 343 9 10 51 13 173 13 l162 0 148 -504z
m-1694 460 c0 -2 -7 -7 -16 -10 -8 -3 -12 -2 -9 4 6 10 25 14 25 6z m-40 -21
c0 -2 -15 -12 -32 -21 -54 -28 -142 -101 -186 -156 -52 -63 -44 -80 55 -104
20 -5 24 -4 18 7 -9 14 56 -29 66 -44 3 -5 9 -8 13 -8 22 3 36 -1 56 -19 17
-15 26 -17 37 -9 9 8 13 8 13 1 0 -6 -4 -14 -10 -17 -15 -9 -12 -22 5 -22 8 0
11 5 8 11 -3 6 -3 8 1 4 5 -4 27 7 49 23 57 41 124 69 177 74 l45 4 -40 -8
c-127 -28 -234 -111 -290 -224 -44 -90 -54 -145 -43 -235 20 -174 128 -305
299 -362 95 -33 198 -25 301 23 42 19 80 32 83 29 4 -4 5 -2 3 4 -2 6 17 31
42 55 43 42 40 31 -6 -21 -28 -32 -26 -62 6 -90 14 -12 26 -26 26 -31 1 -5 2
-13 3 -19 0 -5 8 -10 16 -10 8 0 14 -3 14 -7 -3 -21 2 -33 14 -30 7 1 11 -6 9
-17 -2 -12 1 -16 9 -10 9 5 10 2 6 -9 -3 -9 1 -18 10 -21 9 -4 13 -13 9 -22
-3 -9 -2 -12 5 -9 6 4 17 -1 25 -11 11 -14 17 -16 20 -6 3 6 9 10 14 7 4 -3
32 16 61 41 35 29 29 22 -16 -21 -114 -109 -236 -170 -400 -200 -159 -30 -299
-9 -461 71 -208 102 -361 286 -426 510 -33 113 -32 316 1 424 39 129 107 245
191 331 82 83 200 169 200 144z m485 -285 c13 -6 5 -7 -25 -3 -25 3 -47 7 -49
9 -9 8 55 2 74 -6z m110 -50 c3 -6 -1 -7 -9 -4 -18 7 -21 14 -7 14 6 0 13 -4
16 -10z m76 -67 c13 -16 12 -17 -3 -4 -10 7 -18 15 -18 17 0 8 8 3 21 -13z"/>
<path d="M4250 7085 c0 -39 3 -46 18 -43 13 2 17 13 17 43 0 30 -4 41 -17 43
-15 3 -18 -4 -18 -43z"/>
</g>
</svg>
